<svg width="38" height="36" viewBox="0 0 38 36" fill="none" xmlns="http://www.w3.org/2000/svg">
<g clip-path="url(#clip0_107_9470)">
<path d="M27.7334 2.39402V19.6196H31.2471V1.13086C30.3467 1.72635 29.1281 2.17296 27.7334 2.39402Z" fill="#00A0B0"/>
<path d="M25.7399 2.55052C24.5751 2.55052 23.4775 2.39714 22.5054 2.12646V19.6197H26.0191V2.54601C25.9265 2.54902 25.8324 2.55052 25.7399 2.55052Z" fill="#007D9B"/>
<path d="M6.82129 1.11572V19.6195H10.3335V2.39091C8.93729 2.16685 7.71876 1.71572 6.82129 1.11572Z" fill="#00A0B0"/>
<path d="M19.0424 0C18.6631 0.562406 18.0554 1.06316 17.2773 1.46917V19.6256L19.023 20.3549L20.7896 19.6211V1.45865C20.022 1.05414 19.4172 0.557895 19.0409 0H19.0424Z" fill="#004F72"/>
<path d="M12.3495 2.55037C12.2494 2.55037 12.1479 2.54736 12.0493 2.54586V19.6195H15.5631V2.13232C14.5969 2.39849 13.5068 2.55037 12.3495 2.55037Z" fill="#007D9B"/>
<path d="M18.1869 25.1068H17.1744V26.2225H15.1047V25.0947H11.8403V26.1158H14.0907L14.0937 28.3684H12.3242V31.4737H18.5691V28.3684H18.1883V25.1053L18.1869 25.1068ZM15.1047 27.2436H17.1744V28.3684H15.1047V27.2436ZM13.3366 30.4526V29.388H17.5552V30.4526H13.3366Z" fill="white"/>
<path d="M20.5342 30.4886V30.0601H25.8026V27.8315H25.3919V27.0811H26.1864V26.0601H25.3919V25.1217H24.378V27.8315H23.3133L23.7807 27.0495L22.4292 26.2721H23.6627V25.2495H21.9932V24.5879H20.9777V25.2495H19.4098V26.2721H20.5716L19.25 27.0691L19.7906 27.9338L21.4914 26.8556L23.0982 27.8315H20.1176V28.7398H24.6767V29.1638H19.4098V31.4826H26.2177V30.4886H20.5342Z" fill="white"/>
<path d="M0 35.9594V33.5459H0.901953C1.32754 33.5459 1.53959 33.7865 1.53959 34.2677C1.53959 34.7489 1.31709 34.976 0.872087 34.976H0.500255V35.9594H0ZM0.500255 33.9173V34.606H0.779502C0.852674 34.606 0.913899 34.5715 0.961685 34.5023C1.00798 34.4406 1.03187 34.367 1.03187 34.2812C1.03187 34.0376 0.939286 33.9173 0.752623 33.9173H0.500255Z" fill="white"/>
<path d="M2.66386 34.9609V35.9609H2.16211V33.5474H3.08796C3.26267 33.5474 3.40006 33.6015 3.49861 33.7113C3.59866 33.821 3.64794 33.9774 3.64794 34.182C3.64794 34.5293 3.50011 34.7278 3.20294 34.7774C3.49264 34.8135 3.63749 34.9714 3.63749 35.2526C3.63749 35.6451 3.65541 35.8812 3.69424 35.9609H3.20294C3.17457 35.8992 3.15814 35.8211 3.15366 35.7308C3.15217 35.7128 3.15067 35.6346 3.15067 35.4932C3.15067 35.2992 3.14022 35.1744 3.11782 35.1188C3.07153 35.0135 2.96252 34.9624 2.79228 34.9624H2.66236L2.66386 34.9609ZM2.66386 33.9188V34.591H2.88636C2.97745 34.591 3.04465 34.5504 3.08945 34.4707C3.12529 34.409 3.14321 34.3308 3.14321 34.2361C3.14321 34.0241 3.05809 33.9188 2.88785 33.9188H2.66535H2.66386Z" fill="white"/>
<path d="M5.15343 36.0001C4.78608 36.0001 4.54417 35.8707 4.43067 35.6121C4.36198 35.4587 4.32764 35.1715 4.32764 34.7535C4.32764 34.3354 4.36198 34.0452 4.43067 33.8918C4.54566 33.6362 4.78608 33.5068 5.15343 33.5068C5.52078 33.5068 5.7612 33.6347 5.87768 33.8918C5.94637 34.0452 5.98072 34.3324 5.98072 34.7535C5.98072 35.1745 5.94637 35.4587 5.87768 35.6121C5.7627 35.8707 5.52228 36.0001 5.15343 36.0001ZM5.15343 35.6392C5.28633 35.6392 5.37444 35.5685 5.41924 35.4286C5.45508 35.3129 5.4715 35.0873 5.4715 34.7535C5.4715 34.4196 5.45358 34.1941 5.41924 34.0783C5.37444 33.9384 5.28633 33.8677 5.15343 33.8677C5.02053 33.8677 4.93242 33.9384 4.88762 34.0783C4.85178 34.1941 4.83387 34.4196 4.83387 34.7535C4.83387 35.0873 4.85178 35.3129 4.88762 35.4286C4.93242 35.5685 5.02053 35.6392 5.15343 35.6392Z" fill="white"/>
<path d="M8.19845 35.3009C8.19845 35.5791 8.10587 35.7745 7.92369 35.8858C7.79526 35.961 7.6086 35.9986 7.3637 35.9986C6.88734 35.9986 6.6499 35.7715 6.6499 35.3174C6.6499 35.2843 6.6499 35.2497 6.65289 35.2136H7.15464C7.15464 35.358 7.16808 35.4572 7.19496 35.5114C7.23528 35.5956 7.31591 35.6377 7.43986 35.6377C7.60711 35.6377 7.69223 35.546 7.69223 35.364C7.69223 35.2482 7.60561 35.1339 7.42941 35.0227C7.11581 34.8242 6.95304 34.7204 6.94408 34.7114C6.76937 34.564 6.68126 34.3881 6.68126 34.1836C6.68126 33.7309 6.94408 33.5054 7.47122 33.5054C7.96699 33.5054 8.19845 33.7475 8.16859 34.2302H7.68028C7.68028 33.9866 7.60263 33.8663 7.44732 33.8663C7.2741 33.8663 7.18898 33.952 7.18898 34.1234C7.18898 34.2467 7.2756 34.3595 7.4518 34.4648C7.7639 34.6527 7.92518 34.7505 7.93713 34.7595C8.11184 34.9039 8.19995 35.0843 8.19995 35.3009H8.19845Z" fill="white"/>
<path d="M10.2217 35.9594H8.88672V33.5459H10.1948V33.9173H9.38847V34.5128H10.1321V34.8842H9.38847V35.5895H10.2217V35.9609V35.9594Z" fill="white"/>
<path d="M11.6823 36.0001C11.3149 36.0001 11.073 35.8707 10.958 35.6121C10.8893 35.4587 10.855 35.1715 10.855 34.7535C10.855 34.3354 10.8893 34.0452 10.958 33.8918C11.073 33.6362 11.3149 33.5068 11.6823 33.5068C12.1661 33.5068 12.3991 33.7745 12.3796 34.3083H11.8883C11.8883 34.1474 11.8734 34.0347 11.8421 33.967C11.8107 33.9008 11.7584 33.8662 11.6823 33.8662C11.5494 33.8662 11.4613 33.9369 11.4165 34.0768C11.3806 34.1925 11.3627 34.4181 11.3627 34.7519C11.3627 35.0858 11.3806 35.3113 11.4165 35.4271C11.4613 35.567 11.5494 35.6377 11.6823 35.6377C11.7808 35.6377 11.848 35.5805 11.8809 35.4632C11.8943 35.4121 11.9048 35.3068 11.9107 35.1459H12.405C12.405 35.4587 12.3438 35.6813 12.2184 35.8151C12.1049 35.9369 11.9257 35.9986 11.6808 35.9986L11.6823 36.0001Z" fill="white"/>
<path d="M14.1743 33.5474H14.6761V35.2586C14.6761 35.4662 14.6179 35.6346 14.4999 35.7639C14.3565 35.9218 14.1445 36.0015 13.8622 36.0015C13.58 36.0015 13.3874 35.9353 13.2485 35.8015C13.1141 35.6752 13.0454 35.4947 13.0454 35.2601V33.5489H13.5472V35.2271C13.5472 35.5038 13.6502 35.6406 13.8563 35.6406C14.0623 35.6406 14.1743 35.5023 14.1743 35.2271V33.5489V33.5474Z" fill="white"/>
<path d="M15.2271 33.5474H16.8428V33.9489H16.2843V35.9609H15.7841V33.9489H15.2271V33.5474Z" fill="white"/>
<path d="M17.909 35.9594H17.4072V33.5459H17.909V35.9594Z" fill="white"/>
<path d="M19.465 36.0001C19.0976 36.0001 18.8572 35.8707 18.7422 35.6121C18.6735 35.4587 18.6392 35.1715 18.6392 34.7535C18.6392 34.3354 18.6735 34.0452 18.7422 33.8918C18.8572 33.6362 19.0976 33.5068 19.465 33.5068C19.8323 33.5068 20.0742 33.6347 20.1892 33.8918C20.2579 34.0452 20.2922 34.3324 20.2922 34.7535C20.2922 35.1745 20.2579 35.4587 20.1892 35.6121C20.0742 35.8707 19.8338 36.0001 19.465 36.0001ZM19.465 35.6392C19.5979 35.6392 19.686 35.5685 19.7308 35.4286C19.7666 35.3129 19.783 35.0873 19.783 34.7535C19.783 34.4196 19.7651 34.1941 19.7308 34.0783C19.686 33.9384 19.5979 33.8677 19.465 33.8677C19.3321 33.8677 19.2439 33.9384 19.1991 34.0783C19.1633 34.1941 19.1454 34.4196 19.1454 34.7535C19.1454 35.0873 19.1633 35.3129 19.1991 35.4286C19.2425 35.5685 19.3321 35.6392 19.465 35.6392Z" fill="white"/>
<path d="M21.4903 35.9594H21.0259V33.5459H21.7068L22.3474 35.2166V33.5459H22.8119V35.9594H22.1488L21.4918 34.194V35.9594H21.4903Z" fill="white"/>
<path d="M26.1985 35.3009C26.1985 35.5791 26.1059 35.7745 25.9237 35.8858C25.7953 35.961 25.6086 35.9986 25.3622 35.9986C24.8859 35.9986 24.6484 35.7715 24.6484 35.3174C24.6484 35.2843 24.6484 35.2497 24.6514 35.2136H25.1532C25.1532 35.358 25.1666 35.4572 25.1935 35.5114C25.2338 35.5956 25.3159 35.6377 25.4399 35.6377C25.6086 35.6377 25.6923 35.546 25.6923 35.364C25.6923 35.2482 25.6041 35.1339 25.4294 35.0227C25.1158 34.8242 24.9531 34.7204 24.9456 34.7114C24.7709 34.564 24.6843 34.3881 24.6843 34.1836C24.6843 33.7309 24.9471 33.5054 25.4742 33.5054C25.97 33.5054 26.2015 33.7475 26.1716 34.2302H25.6833C25.6833 33.9866 25.6056 33.8663 25.4503 33.8663C25.2771 33.8663 25.192 33.952 25.192 34.1234C25.192 34.2467 25.2786 34.3595 25.4533 34.4648C25.7654 34.6527 25.9267 34.7505 25.9372 34.7595C26.1119 34.9039 26.2 35.0843 26.2 35.3009H26.1985Z" fill="white"/>
<path d="M28.2217 35.9594H26.8882V33.5459H28.1948V33.9173H27.3884V34.5128H28.1321V34.8842H27.3884V35.5895H28.2217V35.9609V35.9594Z" fill="white"/>
<path d="M29.3704 34.9609V35.9609H28.8687V33.5474H29.7945C29.9692 33.5474 30.1066 33.6015 30.2066 33.7113C30.3052 33.821 30.356 33.9774 30.356 34.182C30.356 34.5293 30.2081 34.7278 29.911 34.7774C30.2007 34.8135 30.3455 34.9714 30.3455 35.2526C30.3455 35.6451 30.3649 35.8812 30.4023 35.9609H29.911C29.8826 35.8992 29.8662 35.8211 29.8617 35.7308C29.8587 35.7128 29.8587 35.6346 29.8587 35.4932C29.8587 35.2992 29.8468 35.1744 29.8259 35.1188C29.7796 35.0135 29.6706 34.9624 29.5003 34.9624H29.3704V34.9609ZM29.3704 33.9188V34.591H29.5929C29.684 34.591 29.7512 34.5504 29.7945 34.4707C29.8303 34.409 29.8483 34.3308 29.8483 34.2361C29.8483 34.0241 29.7631 33.9188 29.5929 33.9188H29.3704Z" fill="white"/>
<path d="M31.4546 35.9594L30.8633 33.5459H31.3844L31.7563 35.3008H31.7622L32.1804 33.5459H32.6747L32.04 35.9594H31.4531H31.4546Z" fill="white"/>
<path d="M33.7351 35.9594H33.2334V33.5459H33.7351V35.9594Z" fill="white"/>
<path d="M35.2912 36.0001C34.9238 36.0001 34.6834 35.8707 34.5669 35.6121C34.4982 35.4587 34.4639 35.1715 34.4639 34.7535C34.4639 34.3354 34.4982 34.0452 34.5669 33.8918C34.6819 33.6362 34.9238 33.5068 35.2912 33.5068C35.7765 33.5068 36.0079 33.7745 35.9885 34.3083H35.4972C35.4972 34.1474 35.4823 34.0347 35.4509 33.967C35.4196 33.9008 35.3673 33.8662 35.2912 33.8662C35.1583 33.8662 35.0701 33.9369 35.0253 34.0768C34.9895 34.1925 34.9716 34.4181 34.9716 34.7519C34.9716 35.0858 34.9895 35.3113 35.0253 35.4271C35.0687 35.567 35.1583 35.6377 35.2912 35.6377C35.3912 35.6377 35.4569 35.5805 35.4898 35.4632C35.5032 35.4121 35.5137 35.3068 35.5196 35.1459H36.0139C36.0139 35.4587 35.9527 35.6813 35.8287 35.8151C35.7153 35.9369 35.5376 35.9986 35.2912 35.9986V36.0001Z" fill="white"/>
<path d="M38 35.9594H36.665V33.5459H37.9732V33.9173H37.1668V34.5128H37.9105V34.8842H37.1668V35.5895H38V35.9609V35.9594Z" fill="white"/>
</g>
<defs>
<clipPath id="clip0_107_9470">
<rect width="38" height="36" fill="white"/>
</clipPath>
</defs>
</svg>
